# xmcd
# Track frame offsets:
# 150
# 13163
# 27919
# 43694
# 57495
# 70377
# 84950
# 101419
# 116686
# 133132
# 149362
# 161196
# 175423
# 185879
# 200400
# 212991
# 228745
# 245007
# 257622
# 271157
# 284032
# 298682
# 315407
# 330548
#
# Disc length: 4607 seconds
# Revision: 0
# Processed by: cddbd v1.5.1PL0 Copyright (c) Steve Scherf et al.
# Submitted via: VisiTrax 2.9.10.228 - For more info visit www.synapsa.com
#
DISCID=7f11fd18
DTITLE=Schneider. Raving Rita. - Birdbrain Ballads.
DYEAR=1900
DGENRE=Comedy.
TTITLE0=I'm Cured Of Everything/
TTITLE1=I Just Don't look good Naked anymore.
TTITLE2=You Can't Sing Comedy On Crutches !
TTITLE3=Liza From Mt.Isa.
TTITLE4=I'm Bootscootin' Shirl.
TTITLE5='Ave Another Aussie Laugh.
TTITLE6=Female Chauvinist Sow.
TTITLE7=Destination Australia.
TTITLE8=Under A Mundubbera Moon.
TTITLE9=I Wanna Be An Aussie In Australia.
TTITLE10=Bungin' It On In Bungendore.
TTITLE11=Aussie Nicknames.
TTITLE12=I Live In The Lucky Country.
TTITLE13=I'm Strictly Australian.
TTITLE14=Directions.
TTITLE15=Love Me Now While I'm alive.
TTITLE16=Hot Springs Of Moree.
TTITLE17=Honk That Honkaphone Tonight.
TTITLE18=Sneaky Snapper From salamander Bay.The.
TTITLE19=Viagra Man.
TTITLE20=Bootscootin' Beverly From batemans Bay.
TTITLE21=Cosmetic Surgery Song.The.
TTITLE22=Didgeree Rock.
TTITLE23=I'm Sport Mad.
EXTD=
EXTT0=
EXTT1=
EXTT2=
EXTT3=
EXTT4=
EXTT5=
EXTT6=
EXTT7=
EXTT8=
EXTT9=
EXTT10=
EXTT11=
EXTT12=
EXTT13=
EXTT14=
EXTT15=
EXTT16=
EXTT17=
EXTT18=
EXTT19=
EXTT20=
EXTT21=
EXTT22=
EXTT23=
PLAYORDER=
